<mxfile host="65bd71144e">
    <diagram id="zJPZgAq4HO8ocV3kGykQ" name="Page-1">
        <mxGraphModel dx="960" dy="1762" grid="1" gridSize="10" guides="1" tooltips="1" connect="1" arrows="1" fold="1" page="1" pageScale="1" pageWidth="850" pageHeight="1100" background="#ffffff" math="0" shadow="0">
            <root>
                <mxCell id="0"/>
                <mxCell id="1" parent="0"/>
                <mxCell id="10" style="edgeStyle=none;html=1;strokeColor=#000000;exitX=0;exitY=0.5;exitDx=0;exitDy=0;" edge="1" parent="1" source="4">
                    <mxGeometry relative="1" as="geometry">
                        <mxPoint x="270" y="235" as="sourcePoint"/>
                        <mxPoint x="190" y="230" as="targetPoint"/>
                    </mxGeometry>
                </mxCell>
                <mxCell id="14" style="edgeStyle=none;html=1;exitX=0.5;exitY=0;exitDx=0;exitDy=0;entryX=0.5;entryY=1;entryDx=0;entryDy=0;strokeColor=#000000;" edge="1" parent="1" source="4" target="13">
                    <mxGeometry relative="1" as="geometry"/>
                </mxCell>
                <mxCell id="4" value="Inicio" style="rounded=0;whiteSpace=wrap;html=1;fillColor=#f5f5f5;fontColor=#333333;strokeColor=#666666;" vertex="1" parent="1">
                    <mxGeometry x="280" y="200" width="120" height="60" as="geometry"/>
                </mxCell>
                <mxCell id="31" style="edgeStyle=none;html=1;exitX=0.5;exitY=1;exitDx=0;exitDy=0;strokeColor=#000000;startArrow=none;startFill=0;endArrow=block;endFill=1;entryX=0.5;entryY=0;entryDx=0;entryDy=0;" edge="1" parent="1" source="7" target="23">
                    <mxGeometry relative="1" as="geometry">
                        <mxPoint x="340" y="330" as="targetPoint"/>
                    </mxGeometry>
                </mxCell>
                <mxCell id="32" style="edgeStyle=none;html=1;entryX=0.433;entryY=-0.04;entryDx=0;entryDy=0;entryPerimeter=0;strokeColor=#000000;startArrow=none;startFill=0;endArrow=block;endFill=1;" edge="1" parent="1" target="21">
                    <mxGeometry relative="1" as="geometry">
                        <mxPoint x="340" y="350" as="sourcePoint"/>
                        <Array as="points">
                            <mxPoint x="162" y="350"/>
                        </Array>
                    </mxGeometry>
                </mxCell>
                <mxCell id="33" style="edgeStyle=none;html=1;entryX=0.5;entryY=0;entryDx=0;entryDy=0;strokeColor=#000000;startArrow=none;startFill=0;endArrow=block;endFill=1;" edge="1" parent="1" target="27">
                    <mxGeometry relative="1" as="geometry">
                        <mxPoint x="340" y="350" as="sourcePoint"/>
                        <Array as="points">
                            <mxPoint x="510" y="350"/>
                        </Array>
                    </mxGeometry>
                </mxCell>
                <mxCell id="34" style="edgeStyle=none;html=1;strokeColor=#000000;startArrow=none;startFill=0;endArrow=block;endFill=1;entryX=0.5;entryY=0;entryDx=0;entryDy=0;" edge="1" parent="1" target="29">
                    <mxGeometry relative="1" as="geometry">
                        <mxPoint x="610" y="320" as="targetPoint"/>
                        <mxPoint x="340" y="350" as="sourcePoint"/>
                        <Array as="points">
                            <mxPoint x="1030" y="350"/>
                        </Array>
                    </mxGeometry>
                </mxCell>
                <mxCell id="7" value="" style="rounded=0;whiteSpace=wrap;html=1;fillColor=#9C1104;fontColor=#ffffff;strokeColor=#B20000;" vertex="1" parent="1">
                    <mxGeometry x="280" y="260" width="120" height="30" as="geometry"/>
                </mxCell>
                <mxCell id="8" value="Información del contacto." style="rounded=0;whiteSpace=wrap;html=1;fillColor=#f5f5f5;fontColor=#333333;strokeColor=#666666;" vertex="1" parent="1">
                    <mxGeometry x="70" y="190" width="120" height="60" as="geometry"/>
                </mxCell>
                <mxCell id="9" value="" style="rounded=0;whiteSpace=wrap;html=1;fillColor=#c9a3f0;strokeColor=#56517e;" vertex="1" parent="1">
                    <mxGeometry x="70" y="250" width="120" height="30" as="geometry"/>
                </mxCell>
                <mxCell id="12" value="Enlance para recuperar contraseña." style="rounded=0;whiteSpace=wrap;html=1;fillColor=#f5f5f5;fontColor=#333333;strokeColor=#666666;" vertex="1" parent="1">
                    <mxGeometry x="280" y="20" width="120" height="60" as="geometry"/>
                </mxCell>
                <mxCell id="13" value="" style="rounded=0;whiteSpace=wrap;html=1;fillColor=#BAC8D3;fontColor=#ffffff;strokeColor=#314354;" vertex="1" parent="1">
                    <mxGeometry x="280" y="80" width="120" height="30" as="geometry"/>
                </mxCell>
                <mxCell id="21" value="Panel de empleados" style="rounded=0;whiteSpace=wrap;html=1;fillColor=#f5f5f5;fontColor=#333333;strokeColor=#666666;" vertex="1" parent="1">
                    <mxGeometry x="110" y="400" width="120" height="60" as="geometry"/>
                </mxCell>
                <mxCell id="43" style="edgeStyle=none;html=1;exitX=0.5;exitY=1;exitDx=0;exitDy=0;entryX=0.5;entryY=0;entryDx=0;entryDy=0;strokeColor=#000000;startArrow=none;startFill=0;endArrow=block;endFill=1;" edge="1" parent="1" source="22" target="35">
                    <mxGeometry relative="1" as="geometry"/>
                </mxCell>
                <mxCell id="22" value="" style="rounded=0;whiteSpace=wrap;html=1;fillColor=#6666FF;fontColor=#ffffff;strokeColor=#432D57;" vertex="1" parent="1">
                    <mxGeometry x="110" y="460" width="120" height="30" as="geometry"/>
                </mxCell>
                <mxCell id="23" value="Finanzas" style="rounded=0;whiteSpace=wrap;html=1;fillColor=#f5f5f5;fontColor=#333333;strokeColor=#666666;" vertex="1" parent="1">
                    <mxGeometry x="280" y="400" width="120" height="60" as="geometry"/>
                </mxCell>
                <mxCell id="58" style="edgeStyle=none;html=1;exitX=0.5;exitY=1;exitDx=0;exitDy=0;entryX=0.5;entryY=0;entryDx=0;entryDy=0;strokeColor=#000000;startArrow=none;startFill=0;endArrow=block;endFill=1;" edge="1" parent="1" source="24" target="47">
                    <mxGeometry relative="1" as="geometry"/>
                </mxCell>
                <mxCell id="24" value="" style="rounded=0;whiteSpace=wrap;html=1;fillColor=#6666FF;fontColor=#ffffff;strokeColor=#432D57;" vertex="1" parent="1">
                    <mxGeometry x="280" y="460" width="120" height="30" as="geometry"/>
                </mxCell>
                <mxCell id="27" value="Incidentes y conflictos laborales" style="rounded=0;whiteSpace=wrap;html=1;fillColor=#f5f5f5;fontColor=#333333;strokeColor=#666666;" vertex="1" parent="1">
                    <mxGeometry x="450" y="400" width="120" height="60" as="geometry"/>
                </mxCell>
                <mxCell id="71" style="edgeStyle=none;html=1;exitX=0.5;exitY=1;exitDx=0;exitDy=0;entryX=0.5;entryY=0;entryDx=0;entryDy=0;strokeColor=#000000;startArrow=none;startFill=0;endArrow=block;endFill=1;" edge="1" parent="1" source="28" target="60">
                    <mxGeometry relative="1" as="geometry"/>
                </mxCell>
                <mxCell id="28" value="" style="rounded=0;whiteSpace=wrap;html=1;fillColor=#6666FF;fontColor=#ffffff;strokeColor=#432D57;" vertex="1" parent="1">
                    <mxGeometry x="450" y="460" width="120" height="30" as="geometry"/>
                </mxCell>
                <mxCell id="29" value="Asistente" style="rounded=0;whiteSpace=wrap;html=1;fillColor=#f5f5f5;fontColor=#333333;strokeColor=#666666;" vertex="1" parent="1">
                    <mxGeometry x="970" y="400" width="120" height="60" as="geometry"/>
                </mxCell>
                <mxCell id="80" style="edgeStyle=none;html=1;exitX=0.5;exitY=1;exitDx=0;exitDy=0;strokeColor=#000000;startArrow=none;startFill=0;endArrow=block;endFill=1;entryX=0.5;entryY=0;entryDx=0;entryDy=0;" edge="1" parent="1" source="30" target="72">
                    <mxGeometry relative="1" as="geometry">
                        <mxPoint x="1030" y="540" as="targetPoint"/>
                    </mxGeometry>
                </mxCell>
                <mxCell id="30" value="" style="rounded=0;whiteSpace=wrap;html=1;fillColor=#6666FF;fontColor=#ffffff;strokeColor=#432D57;" vertex="1" parent="1">
                    <mxGeometry x="970" y="460" width="120" height="30" as="geometry"/>
                </mxCell>
                <mxCell id="35" value="Dar de alta" style="rounded=0;whiteSpace=wrap;html=1;fillColor=#f5f5f5;fontColor=#333333;strokeColor=#666666;" vertex="1" parent="1">
                    <mxGeometry x="110" y="545" width="120" height="60" as="geometry"/>
                </mxCell>
                <mxCell id="44" style="edgeStyle=none;html=1;exitX=0.5;exitY=1;exitDx=0;exitDy=0;entryX=0.5;entryY=0;entryDx=0;entryDy=0;strokeColor=#000000;startArrow=none;startFill=0;endArrow=block;endFill=1;" edge="1" parent="1" source="36" target="37">
                    <mxGeometry relative="1" as="geometry"/>
                </mxCell>
                <mxCell id="36" value="" style="rounded=0;whiteSpace=wrap;html=1;fillColor=#7ecbf1;fontColor=#ffffff;strokeColor=#006EAF;" vertex="1" parent="1">
                    <mxGeometry x="110" y="605" width="120" height="30" as="geometry"/>
                </mxCell>
                <mxCell id="37" value="Dar de baja" style="rounded=0;whiteSpace=wrap;html=1;fillColor=#f5f5f5;fontColor=#333333;strokeColor=#666666;" vertex="1" parent="1">
                    <mxGeometry x="110" y="680" width="120" height="60" as="geometry"/>
                </mxCell>
                <mxCell id="45" style="edgeStyle=none;html=1;exitX=0.5;exitY=1;exitDx=0;exitDy=0;entryX=0.5;entryY=0;entryDx=0;entryDy=0;strokeColor=#000000;startArrow=none;startFill=0;endArrow=block;endFill=1;" edge="1" parent="1" source="38" target="39">
                    <mxGeometry relative="1" as="geometry"/>
                </mxCell>
                <mxCell id="38" value="" style="rounded=0;whiteSpace=wrap;html=1;fillColor=#7ecbf1;fontColor=#ffffff;strokeColor=#006EAF;" vertex="1" parent="1">
                    <mxGeometry x="110" y="740" width="120" height="30" as="geometry"/>
                </mxCell>
                <mxCell id="39" value="Modificar datos" style="rounded=0;whiteSpace=wrap;html=1;fillColor=#f5f5f5;fontColor=#333333;strokeColor=#666666;" vertex="1" parent="1">
                    <mxGeometry x="110" y="810" width="120" height="60" as="geometry"/>
                </mxCell>
                <mxCell id="46" style="edgeStyle=none;html=1;exitX=0.5;exitY=1;exitDx=0;exitDy=0;entryX=0.5;entryY=0;entryDx=0;entryDy=0;strokeColor=#000000;startArrow=none;startFill=0;endArrow=block;endFill=1;" edge="1" parent="1" source="40" target="41">
                    <mxGeometry relative="1" as="geometry"/>
                </mxCell>
                <mxCell id="40" value="" style="rounded=0;whiteSpace=wrap;html=1;fillColor=#7ecbf1;fontColor=#ffffff;strokeColor=#006EAF;" vertex="1" parent="1">
                    <mxGeometry x="110" y="870" width="120" height="30" as="geometry"/>
                </mxCell>
                <mxCell id="41" value="Generación de reportes." style="rounded=0;whiteSpace=wrap;html=1;fillColor=#f5f5f5;fontColor=#333333;strokeColor=#666666;" vertex="1" parent="1">
                    <mxGeometry x="110" y="950" width="120" height="60" as="geometry"/>
                </mxCell>
                <mxCell id="42" value="" style="rounded=0;whiteSpace=wrap;html=1;fillColor=#7ecbf1;fontColor=#ffffff;strokeColor=#006EAF;" vertex="1" parent="1">
                    <mxGeometry x="110" y="1010" width="120" height="30" as="geometry"/>
                </mxCell>
                <mxCell id="47" value="Visualización." style="rounded=0;whiteSpace=wrap;html=1;fillColor=#f5f5f5;fontColor=#333333;strokeColor=#666666;" vertex="1" parent="1">
                    <mxGeometry x="280" y="545" width="120" height="60" as="geometry"/>
                </mxCell>
                <mxCell id="48" style="edgeStyle=none;html=1;exitX=0.5;exitY=1;exitDx=0;exitDy=0;entryX=0.5;entryY=0;entryDx=0;entryDy=0;strokeColor=#000000;startArrow=none;startFill=0;endArrow=block;endFill=1;" edge="1" parent="1" source="49" target="50">
                    <mxGeometry relative="1" as="geometry"/>
                </mxCell>
                <mxCell id="49" value="" style="rounded=0;whiteSpace=wrap;html=1;fillColor=#7ecbf1;fontColor=#ffffff;strokeColor=#006EAF;" vertex="1" parent="1">
                    <mxGeometry x="280" y="605" width="120" height="30" as="geometry"/>
                </mxCell>
                <mxCell id="50" value="Modificación." style="rounded=0;whiteSpace=wrap;html=1;fillColor=#f5f5f5;fontColor=#333333;strokeColor=#666666;" vertex="1" parent="1">
                    <mxGeometry x="280" y="680" width="120" height="60" as="geometry"/>
                </mxCell>
                <mxCell id="52" value="" style="rounded=0;whiteSpace=wrap;html=1;fillColor=#7ecbf1;fontColor=#ffffff;strokeColor=#006EAF;" vertex="1" parent="1">
                    <mxGeometry x="280" y="740" width="120" height="30" as="geometry"/>
                </mxCell>
                <mxCell id="60" value="Registrar conflicto." style="rounded=0;whiteSpace=wrap;html=1;fillColor=#f5f5f5;fontColor=#333333;strokeColor=#666666;" vertex="1" parent="1">
                    <mxGeometry x="450" y="545" width="120" height="60" as="geometry"/>
                </mxCell>
                <mxCell id="61" style="edgeStyle=none;html=1;exitX=0.5;exitY=1;exitDx=0;exitDy=0;entryX=0.5;entryY=0;entryDx=0;entryDy=0;strokeColor=#000000;startArrow=none;startFill=0;endArrow=block;endFill=1;" edge="1" parent="1" source="62" target="63">
                    <mxGeometry relative="1" as="geometry"/>
                </mxCell>
                <mxCell id="62" value="" style="rounded=0;whiteSpace=wrap;html=1;fillColor=#7ecbf1;fontColor=#ffffff;strokeColor=#006EAF;" vertex="1" parent="1">
                    <mxGeometry x="450" y="605" width="120" height="30" as="geometry"/>
                </mxCell>
                <mxCell id="85" style="edgeStyle=none;html=1;exitX=1;exitY=0.75;exitDx=0;exitDy=0;entryX=0;entryY=0.75;entryDx=0;entryDy=0;strokeColor=#000000;startArrow=none;startFill=0;endArrow=block;endFill=1;" edge="1" parent="1" source="63" target="81">
                    <mxGeometry relative="1" as="geometry"/>
                </mxCell>
                <mxCell id="63" value="Modificación del estado." style="rounded=0;whiteSpace=wrap;html=1;fillColor=#f5f5f5;fontColor=#333333;strokeColor=#666666;" vertex="1" parent="1">
                    <mxGeometry x="450" y="680" width="120" height="60" as="geometry"/>
                </mxCell>
                <mxCell id="64" style="edgeStyle=none;html=1;exitX=0.5;exitY=1;exitDx=0;exitDy=0;entryX=0.5;entryY=0;entryDx=0;entryDy=0;strokeColor=#000000;startArrow=none;startFill=0;endArrow=block;endFill=1;" edge="1" parent="1" source="65" target="66">
                    <mxGeometry relative="1" as="geometry"/>
                </mxCell>
                <mxCell id="65" value="" style="rounded=0;whiteSpace=wrap;html=1;fillColor=#7ecbf1;fontColor=#ffffff;strokeColor=#006EAF;" vertex="1" parent="1">
                    <mxGeometry x="450" y="740" width="120" height="30" as="geometry"/>
                </mxCell>
                <mxCell id="66" value="Generación de reportes." style="rounded=0;whiteSpace=wrap;html=1;fillColor=#f5f5f5;fontColor=#333333;strokeColor=#666666;" vertex="1" parent="1">
                    <mxGeometry x="450" y="810" width="120" height="60" as="geometry"/>
                </mxCell>
                <mxCell id="68" value="" style="rounded=0;whiteSpace=wrap;html=1;fillColor=#7ecbf1;fontColor=#ffffff;strokeColor=#006EAF;" vertex="1" parent="1">
                    <mxGeometry x="450" y="870" width="120" height="30" as="geometry"/>
                </mxCell>
                <mxCell id="72" value="Actualización de la BD." style="rounded=0;whiteSpace=wrap;html=1;fillColor=#f5f5f5;fontColor=#333333;strokeColor=#666666;" vertex="1" parent="1">
                    <mxGeometry x="970" y="545" width="120" height="60" as="geometry"/>
                </mxCell>
                <mxCell id="73" style="edgeStyle=none;html=1;exitX=0.5;exitY=1;exitDx=0;exitDy=0;entryX=0.5;entryY=0;entryDx=0;entryDy=0;strokeColor=#000000;startArrow=none;startFill=0;endArrow=block;endFill=1;" edge="1" parent="1" source="74" target="75">
                    <mxGeometry relative="1" as="geometry"/>
                </mxCell>
                <mxCell id="74" value="" style="rounded=0;whiteSpace=wrap;html=1;fillColor=#7ecbf1;fontColor=#ffffff;strokeColor=#006EAF;" vertex="1" parent="1">
                    <mxGeometry x="970" y="605" width="120" height="30" as="geometry"/>
                </mxCell>
                <mxCell id="75" value="Modificación de la información." style="rounded=0;whiteSpace=wrap;html=1;fillColor=#f5f5f5;fontColor=#333333;strokeColor=#666666;" vertex="1" parent="1">
                    <mxGeometry x="970" y="680" width="120" height="60" as="geometry"/>
                </mxCell>
                <mxCell id="76" style="edgeStyle=none;html=1;exitX=0.5;exitY=1;exitDx=0;exitDy=0;entryX=0.5;entryY=0;entryDx=0;entryDy=0;strokeColor=#000000;startArrow=none;startFill=0;endArrow=block;endFill=1;" edge="1" parent="1" source="77" target="78">
                    <mxGeometry relative="1" as="geometry"/>
                </mxCell>
                <mxCell id="77" value="" style="rounded=0;whiteSpace=wrap;html=1;fillColor=#7ecbf1;fontColor=#ffffff;strokeColor=#006EAF;" vertex="1" parent="1">
                    <mxGeometry x="970" y="740" width="120" height="30" as="geometry"/>
                </mxCell>
                <mxCell id="78" value="Generación de reportes." style="rounded=0;whiteSpace=wrap;html=1;fillColor=#f5f5f5;fontColor=#333333;strokeColor=#666666;" vertex="1" parent="1">
                    <mxGeometry x="970" y="810" width="120" height="60" as="geometry"/>
                </mxCell>
                <mxCell id="79" value="" style="rounded=0;whiteSpace=wrap;html=1;fillColor=#7ecbf1;fontColor=#ffffff;strokeColor=#006EAF;" vertex="1" parent="1">
                    <mxGeometry x="970" y="870" width="120" height="30" as="geometry"/>
                </mxCell>
                <mxCell id="86" style="edgeStyle=none;html=1;exitX=1;exitY=0.75;exitDx=0;exitDy=0;entryX=0;entryY=0.75;entryDx=0;entryDy=0;strokeColor=#000000;startArrow=none;startFill=0;endArrow=block;endFill=1;" edge="1" parent="1" source="81" target="83">
                    <mxGeometry relative="1" as="geometry"/>
                </mxCell>
                <mxCell id="81" value="En proceso." style="rounded=0;whiteSpace=wrap;html=1;fillColor=#f5f5f5;fontColor=#333333;strokeColor=#666666;" vertex="1" parent="1">
                    <mxGeometry x="620" y="680" width="120" height="60" as="geometry"/>
                </mxCell>
                <mxCell id="82" value="" style="rounded=0;whiteSpace=wrap;html=1;fillColor=#e3c800;fontColor=#000000;strokeColor=#B09500;" vertex="1" parent="1">
                    <mxGeometry x="620" y="740" width="120" height="30" as="geometry"/>
                </mxCell>
                <mxCell id="83" value="Resuelto." style="rounded=0;whiteSpace=wrap;html=1;fillColor=#f5f5f5;fontColor=#333333;strokeColor=#666666;" vertex="1" parent="1">
                    <mxGeometry x="780" y="680" width="120" height="60" as="geometry"/>
                </mxCell>
                <mxCell id="84" value="" style="rounded=0;whiteSpace=wrap;html=1;fillColor=#e3c800;fontColor=#000000;strokeColor=#B09500;" vertex="1" parent="1">
                    <mxGeometry x="780" y="740" width="120" height="30" as="geometry"/>
                </mxCell>
                <mxCell id="Woz1073J_6aak0PEf7wt-86" value="" style="endArrow=none;dashed=1;html=1;strokeColor=#000000;" edge="1" parent="1">
                    <mxGeometry width="50" height="50" relative="1" as="geometry">
                        <mxPoint x="230" y="-10" as="sourcePoint"/>
                        <mxPoint x="460" y="-10" as="targetPoint"/>
                        <Array as="points">
                            <mxPoint x="390" y="-10"/>
                        </Array>
                    </mxGeometry>
                </mxCell>
                <mxCell id="Woz1073J_6aak0PEf7wt-87" value="" style="endArrow=none;dashed=1;html=1;strokeColor=#000000;" edge="1" parent="1">
                    <mxGeometry width="50" height="50" relative="1" as="geometry">
                        <mxPoint x="460" y="-10" as="sourcePoint"/>
                        <mxPoint x="460" y="140" as="targetPoint"/>
                        <Array as="points">
                            <mxPoint x="460" y="30"/>
                        </Array>
                    </mxGeometry>
                </mxCell>
                <mxCell id="Woz1073J_6aak0PEf7wt-88" value="" style="endArrow=none;dashed=1;html=1;strokeColor=#000000;" edge="1" parent="1">
                    <mxGeometry width="50" height="50" relative="1" as="geometry">
                        <mxPoint x="230" y="140" as="sourcePoint"/>
                        <mxPoint x="460" y="140" as="targetPoint"/>
                        <Array as="points">
                            <mxPoint x="390" y="140"/>
                        </Array>
                    </mxGeometry>
                </mxCell>
                <mxCell id="Woz1073J_6aak0PEf7wt-89" value="" style="endArrow=none;dashed=1;html=1;strokeColor=#000000;" edge="1" parent="1">
                    <mxGeometry width="50" height="50" relative="1" as="geometry">
                        <mxPoint x="230" y="-10" as="sourcePoint"/>
                        <mxPoint x="230" y="140" as="targetPoint"/>
                        <Array as="points">
                            <mxPoint x="230" y="30"/>
                        </Array>
                    </mxGeometry>
                </mxCell>
                <mxCell id="Woz1073J_6aak0PEf7wt-90" value="" style="endArrow=none;dashed=1;html=1;strokeColor=#000000;" edge="1" parent="1">
                    <mxGeometry width="50" height="50" relative="1" as="geometry">
                        <mxPoint x="40" y="180" as="sourcePoint"/>
                        <mxPoint x="240" y="180" as="targetPoint"/>
                        <Array as="points">
                            <mxPoint x="190" y="180"/>
                        </Array>
                    </mxGeometry>
                </mxCell>
                <mxCell id="Woz1073J_6aak0PEf7wt-91" value="" style="endArrow=none;dashed=1;html=1;strokeColor=#000000;fontStyle=1" edge="1" parent="1">
                    <mxGeometry width="50" height="50" relative="1" as="geometry">
                        <mxPoint x="40" y="300" as="sourcePoint"/>
                        <mxPoint x="240" y="300" as="targetPoint"/>
                        <Array as="points">
                            <mxPoint x="190" y="300"/>
                        </Array>
                    </mxGeometry>
                </mxCell>
                <mxCell id="Woz1073J_6aak0PEf7wt-92" value="" style="endArrow=none;dashed=1;html=1;strokeColor=#000000;fontStyle=1" edge="1" parent="1">
                    <mxGeometry width="50" height="50" relative="1" as="geometry">
                        <mxPoint x="240" y="180" as="sourcePoint"/>
                        <mxPoint x="240" y="300" as="targetPoint"/>
                        <Array as="points">
                            <mxPoint x="240" y="220"/>
                        </Array>
                    </mxGeometry>
                </mxCell>
                <mxCell id="Woz1073J_6aak0PEf7wt-93" value="" style="endArrow=none;dashed=1;html=1;strokeColor=#000000;fontStyle=1" edge="1" parent="1">
                    <mxGeometry width="50" height="50" relative="1" as="geometry">
                        <mxPoint x="40" y="180" as="sourcePoint"/>
                        <mxPoint x="40" y="300" as="targetPoint"/>
                        <Array as="points">
                            <mxPoint x="40" y="220"/>
                        </Array>
                    </mxGeometry>
                </mxCell>
                <mxCell id="Woz1073J_6aak0PEf7wt-94" value="Cabezera: Menú auxiliar. (Contenido horizontal)" style="text;html=1;align=center;verticalAlign=middle;resizable=0;points=[];autosize=1;strokeColor=none;fillColor=none;fontColor=#5e5e5e;fontStyle=1" vertex="1" parent="1">
                    <mxGeometry x="205" y="-40" width="290" height="30" as="geometry"/>
                </mxCell>
                <mxCell id="Woz1073J_6aak0PEf7wt-95" value="&lt;font color=&quot;#b266ff&quot;&gt;Pie página: (Contenido horizontal)&lt;/font&gt;" style="text;html=1;align=center;verticalAlign=middle;resizable=0;points=[];autosize=1;strokeColor=none;fillColor=none;fontColor=#5e5e5e;fontStyle=1" vertex="1" parent="1">
                    <mxGeometry x="30" y="150" width="220" height="30" as="geometry"/>
                </mxCell>
                <mxCell id="Woz1073J_6aak0PEf7wt-96" value="" style="endArrow=none;dashed=1;html=1;strokeColor=#000000;fontStyle=1" edge="1" parent="1">
                    <mxGeometry width="50" height="50" relative="1" as="geometry">
                        <mxPoint x="80" y="330" as="sourcePoint"/>
                        <mxPoint x="1120" y="330" as="targetPoint"/>
                        <Array as="points">
                            <mxPoint x="240" y="330"/>
                        </Array>
                    </mxGeometry>
                </mxCell>
                <mxCell id="Woz1073J_6aak0PEf7wt-98" value="" style="endArrow=none;dashed=1;html=1;strokeColor=#000000;fontStyle=1" edge="1" parent="1">
                    <mxGeometry width="50" height="50" relative="1" as="geometry">
                        <mxPoint x="80" y="520" as="sourcePoint"/>
                        <mxPoint x="1120" y="520" as="targetPoint"/>
                        <Array as="points">
                            <mxPoint x="240" y="520"/>
                        </Array>
                    </mxGeometry>
                </mxCell>
                <mxCell id="Woz1073J_6aak0PEf7wt-99" value="" style="endArrow=none;dashed=1;html=1;strokeColor=#000000;" edge="1" parent="1">
                    <mxGeometry width="50" height="50" relative="1" as="geometry">
                        <mxPoint x="1120" y="330" as="sourcePoint"/>
                        <mxPoint x="1120" y="520" as="targetPoint"/>
                        <Array as="points">
                            <mxPoint x="1120" y="370"/>
                        </Array>
                    </mxGeometry>
                </mxCell>
                <mxCell id="Woz1073J_6aak0PEf7wt-100" value="" style="endArrow=none;dashed=1;html=1;strokeColor=#000000;" edge="1" parent="1">
                    <mxGeometry width="50" height="50" relative="1" as="geometry">
                        <mxPoint x="80" y="330" as="sourcePoint"/>
                        <mxPoint x="80" y="520" as="targetPoint"/>
                        <Array as="points">
                            <mxPoint x="80" y="370"/>
                        </Array>
                    </mxGeometry>
                </mxCell>
                <mxCell id="Woz1073J_6aak0PEf7wt-101" value="&lt;font&gt;Navegación principal: Menú principal.&lt;/font&gt;" style="text;html=1;align=center;verticalAlign=middle;resizable=0;points=[];autosize=1;strokeColor=none;fillColor=none;fontColor=#6666FF;fontStyle=1" vertex="1" parent="1">
                    <mxGeometry x="880" y="300" width="240" height="30" as="geometry"/>
                </mxCell>
                <mxCell id="Woz1073J_6aak0PEf7wt-102" value="" style="endArrow=none;dashed=1;html=1;strokeColor=#000000;fontStyle=1" edge="1" parent="1">
                    <mxGeometry width="50" height="50" relative="1" as="geometry">
                        <mxPoint x="80" y="530" as="sourcePoint"/>
                        <mxPoint x="260" y="530" as="targetPoint"/>
                        <Array as="points">
                            <mxPoint x="210" y="530"/>
                        </Array>
                    </mxGeometry>
                </mxCell>
                <mxCell id="Woz1073J_6aak0PEf7wt-103" value="" style="endArrow=none;dashed=1;html=1;strokeColor=#000000;fontStyle=1" edge="1" parent="1">
                    <mxGeometry width="50" height="50" relative="1" as="geometry">
                        <mxPoint x="80" y="1060" as="sourcePoint"/>
                        <mxPoint x="260" y="1060" as="targetPoint"/>
                        <Array as="points">
                            <mxPoint x="210" y="1060"/>
                        </Array>
                    </mxGeometry>
                </mxCell>
                <mxCell id="Woz1073J_6aak0PEf7wt-104" value="" style="endArrow=none;dashed=1;html=1;strokeColor=#000000;fontStyle=1" edge="1" parent="1">
                    <mxGeometry width="50" height="50" relative="1" as="geometry">
                        <mxPoint x="260" y="530" as="sourcePoint"/>
                        <mxPoint x="260" y="1060" as="targetPoint"/>
                        <Array as="points">
                            <mxPoint x="260" y="570"/>
                        </Array>
                    </mxGeometry>
                </mxCell>
                <mxCell id="Woz1073J_6aak0PEf7wt-105" value="" style="endArrow=none;dashed=1;html=1;strokeColor=#000000;fontStyle=1" edge="1" parent="1">
                    <mxGeometry width="50" height="50" relative="1" as="geometry">
                        <mxPoint x="80" y="530" as="sourcePoint"/>
                        <mxPoint x="80" y="1060" as="targetPoint"/>
                        <Array as="points">
                            <mxPoint x="80" y="570"/>
                        </Array>
                    </mxGeometry>
                </mxCell>
                <mxCell id="Woz1073J_6aak0PEf7wt-106" value="Navegación secundaria: menús segundo nivel." style="text;html=1;align=center;verticalAlign=middle;resizable=0;points=[];autosize=1;strokeColor=none;fillColor=none;fontColor=#66B2FF;fontStyle=1" vertex="1" parent="1">
                    <mxGeometry x="70" y="1060" width="290" height="30" as="geometry"/>
                </mxCell>
                <mxCell id="Woz1073J_6aak0PEf7wt-107" value="Navegación especifica: menú tercer nivel" style="text;html=1;align=center;verticalAlign=middle;resizable=0;points=[];autosize=1;strokeColor=none;fillColor=none;fontColor=#FFFF00;fontStyle=1" vertex="1" parent="1">
                    <mxGeometry x="630" y="800" width="260" height="30" as="geometry"/>
                </mxCell>
                <mxCell id="Woz1073J_6aak0PEf7wt-108" value="" style="endArrow=none;dashed=1;html=1;strokeColor=#000000;fontStyle=1" edge="1" parent="1">
                    <mxGeometry width="50" height="50" relative="1" as="geometry">
                        <mxPoint x="920" y="670" as="sourcePoint"/>
                        <mxPoint x="920" y="790" as="targetPoint"/>
                        <Array as="points">
                            <mxPoint x="920" y="710"/>
                        </Array>
                    </mxGeometry>
                </mxCell>
                <mxCell id="Woz1073J_6aak0PEf7wt-109" value="" style="endArrow=none;dashed=1;html=1;strokeColor=#000000;fontStyle=1" edge="1" parent="1">
                    <mxGeometry width="50" height="50" relative="1" as="geometry">
                        <mxPoint x="600" y="670" as="sourcePoint"/>
                        <mxPoint x="600" y="790" as="targetPoint"/>
                        <Array as="points">
                            <mxPoint x="600" y="710"/>
                        </Array>
                    </mxGeometry>
                </mxCell>
                <mxCell id="Woz1073J_6aak0PEf7wt-110" value="" style="endArrow=none;dashed=1;html=1;strokeColor=#000000;fontStyle=1" edge="1" parent="1">
                    <mxGeometry width="50" height="50" relative="1" as="geometry">
                        <mxPoint x="600" y="790" as="sourcePoint"/>
                        <mxPoint x="920" y="790" as="targetPoint"/>
                        <Array as="points">
                            <mxPoint x="750" y="790"/>
                        </Array>
                    </mxGeometry>
                </mxCell>
                <mxCell id="Woz1073J_6aak0PEf7wt-111" value="" style="endArrow=none;dashed=1;html=1;strokeColor=#000000;fontStyle=1" edge="1" parent="1">
                    <mxGeometry width="50" height="50" relative="1" as="geometry">
                        <mxPoint x="600.0000000000002" y="670" as="sourcePoint"/>
                        <mxPoint x="920" y="670" as="targetPoint"/>
                        <Array as="points">
                            <mxPoint x="750" y="670"/>
                        </Array>
                    </mxGeometry>
                </mxCell>
                <mxCell id="Woz1073J_6aak0PEf7wt-114" value="" style="rounded=0;whiteSpace=wrap;html=1;fillColor=#9C1104;fontColor=#ffffff;strokeColor=#B20000;" vertex="1" parent="1">
                    <mxGeometry x="640" y="955" width="70" height="20" as="geometry"/>
                </mxCell>
                <mxCell id="Woz1073J_6aak0PEf7wt-115" value="" style="rounded=0;whiteSpace=wrap;html=1;fillColor=#BAC8D3;fontColor=#ffffff;strokeColor=#314354;" vertex="1" parent="1">
                    <mxGeometry x="640" y="985" width="70" height="20" as="geometry"/>
                </mxCell>
                <mxCell id="Woz1073J_6aak0PEf7wt-116" value="" style="rounded=0;whiteSpace=wrap;html=1;fillColor=#c9a3f0;strokeColor=#56517e;" vertex="1" parent="1">
                    <mxGeometry x="640" y="1015" width="70" height="20" as="geometry"/>
                </mxCell>
                <mxCell id="Woz1073J_6aak0PEf7wt-117" value="" style="rounded=0;whiteSpace=wrap;html=1;fillColor=#6666FF;fontColor=#ffffff;strokeColor=#432D57;" vertex="1" parent="1">
                    <mxGeometry x="840" y="955" width="70" height="20" as="geometry"/>
                </mxCell>
                <mxCell id="Woz1073J_6aak0PEf7wt-118" value="" style="rounded=0;whiteSpace=wrap;html=1;fillColor=#7ecbf1;fontColor=#ffffff;strokeColor=#006EAF;" vertex="1" parent="1">
                    <mxGeometry x="840" y="985" width="70" height="20" as="geometry"/>
                </mxCell>
                <mxCell id="Woz1073J_6aak0PEf7wt-119" value="" style="rounded=0;whiteSpace=wrap;html=1;fillColor=#e3c800;fontColor=#000000;strokeColor=#B09500;" vertex="1" parent="1">
                    <mxGeometry x="840" y="1015" width="70" height="20" as="geometry"/>
                </mxCell>
                <mxCell id="Woz1073J_6aak0PEf7wt-120" value="Pagina principal" style="text;html=1;align=center;verticalAlign=middle;resizable=0;points=[];autosize=1;strokeColor=none;fillColor=none;fontColor=#000000;" vertex="1" parent="1">
                    <mxGeometry x="710" y="950" width="110" height="30" as="geometry"/>
                </mxCell>
                <mxCell id="Woz1073J_6aak0PEf7wt-121" value="Cabezera" style="text;html=1;align=center;verticalAlign=middle;resizable=0;points=[];autosize=1;strokeColor=none;fillColor=none;fontColor=#000000;" vertex="1" parent="1">
                    <mxGeometry x="710" y="980" width="80" height="30" as="geometry"/>
                </mxCell>
                <mxCell id="Woz1073J_6aak0PEf7wt-122" value="Pie de pagina" style="text;html=1;align=center;verticalAlign=middle;resizable=0;points=[];autosize=1;strokeColor=none;fillColor=none;fontColor=#000000;" vertex="1" parent="1">
                    <mxGeometry x="715" y="1010" width="100" height="30" as="geometry"/>
                </mxCell>
                <mxCell id="Woz1073J_6aak0PEf7wt-123" value="Primer nivel" style="text;html=1;align=center;verticalAlign=middle;resizable=0;points=[];autosize=1;strokeColor=none;fillColor=none;fontColor=#000000;" vertex="1" parent="1">
                    <mxGeometry x="910" y="950" width="90" height="30" as="geometry"/>
                </mxCell>
                <mxCell id="Woz1073J_6aak0PEf7wt-124" value="Srgundo nivel" style="text;html=1;align=center;verticalAlign=middle;resizable=0;points=[];autosize=1;strokeColor=none;fillColor=none;fontColor=#000000;" vertex="1" parent="1">
                    <mxGeometry x="910" y="980" width="100" height="30" as="geometry"/>
                </mxCell>
                <mxCell id="Woz1073J_6aak0PEf7wt-125" value="Tercer nivel" style="text;html=1;align=center;verticalAlign=middle;resizable=0;points=[];autosize=1;strokeColor=none;fillColor=none;fontColor=#000000;" vertex="1" parent="1">
                    <mxGeometry x="915" y="1005" width="80" height="30" as="geometry"/>
                </mxCell>
                <mxCell id="Woz1073J_6aak0PEf7wt-126" value="" style="endArrow=none;html=1;strokeColor=#000000;fontColor=#000000;fontStyle=1" edge="1" parent="1">
                    <mxGeometry width="50" height="50" relative="1" as="geometry">
                        <mxPoint x="600" y="920" as="sourcePoint"/>
                        <mxPoint x="1040" y="920" as="targetPoint"/>
                    </mxGeometry>
                </mxCell>
                <mxCell id="Woz1073J_6aak0PEf7wt-127" value="" style="endArrow=none;html=1;strokeColor=#000000;fontColor=#000000;fontStyle=1" edge="1" parent="1">
                    <mxGeometry width="50" height="50" relative="1" as="geometry">
                        <mxPoint x="599.9999999999998" y="1074.29" as="sourcePoint"/>
                        <mxPoint x="1040" y="1074.29" as="targetPoint"/>
                    </mxGeometry>
                </mxCell>
                <mxCell id="Woz1073J_6aak0PEf7wt-128" value="" style="endArrow=none;html=1;strokeColor=#000000;fontColor=#000000;" edge="1" parent="1">
                    <mxGeometry width="50" height="50" relative="1" as="geometry">
                        <mxPoint x="1040" y="1080" as="sourcePoint"/>
                        <mxPoint x="1040" y="920" as="targetPoint"/>
                    </mxGeometry>
                </mxCell>
                <mxCell id="Woz1073J_6aak0PEf7wt-129" value="" style="endArrow=none;html=1;strokeColor=#000000;fontColor=#000000;" edge="1" parent="1">
                    <mxGeometry width="50" height="50" relative="1" as="geometry">
                        <mxPoint x="600" y="1080" as="sourcePoint"/>
                        <mxPoint x="600" y="920" as="targetPoint"/>
                    </mxGeometry>
                </mxCell>
            </root>
        </mxGraphModel>
    </diagram>
</mxfile>